<svg width="41" height="41" viewBox="0 0 41 41" fill="none" xmlns="http://www.w3.org/2000/svg">
<g id="Frame" clip-path="url(#clip0_944_1204)">
<path id="Vector" d="M27.0902 37.2754H2.51956C1.52345 37.2754 0.859375 36.6113 0.859375 35.6152V32.2949C0.859375 27.8124 4.51177 23.994 9.16028 23.994H20.6155C25.098 23.994 28.9164 27.6464 28.9164 32.2949V35.6152C28.7504 36.6113 28.0864 37.2754 27.0902 37.2754ZM4.17974 33.955H25.4301V32.2949C25.4301 29.6386 23.2718 27.3143 20.4495 27.3143H9.16028C6.50399 27.3143 4.17974 29.4726 4.17974 32.2949V33.955ZM14.8049 20.8396C10.3224 20.8396 6.50399 17.1872 6.50399 12.5387C6.50399 7.89019 10.1564 4.23779 14.8049 4.23779C19.2874 4.23779 23.1058 7.89019 23.1058 12.5387C23.1058 17.1872 19.4534 20.8396 14.8049 20.8396ZM14.8049 7.72417C12.1486 7.72417 9.82436 9.88241 9.82436 12.7047C9.82436 15.361 11.9826 17.6853 14.8049 17.6853C17.6272 17.6853 19.7854 15.527 19.7854 12.7047C19.7854 9.88241 17.6272 7.72417 14.8049 7.72417ZM40.5377 17.6853C40.5377 17.3532 40.2057 17.1872 39.8736 17.1872L38.8775 17.0212L39.5416 16.1911C39.7076 16.0251 39.7076 15.693 39.5416 15.361C39.5416 15.361 39.2096 14.863 38.5455 14.1989C37.8814 13.5348 37.3834 13.3688 37.3834 13.3688C37.0513 13.2028 36.8853 13.2028 36.5533 13.3688L35.7232 14.0329V12.8707C35.7232 12.5387 35.3912 12.3727 35.2251 12.2067C35.0591 12.2067 34.5611 12.0406 33.731 12.0406C32.9009 12.0406 32.4028 12.2067 32.2368 12.2067C31.9048 12.2067 31.7388 12.5387 31.7388 12.8707L31.5727 13.8668L30.7426 13.3688C30.5766 13.2028 30.2446 13.2028 29.9126 13.3688C29.7465 13.5348 29.2485 13.7008 28.7504 14.3649C28.0864 15.029 27.7543 15.527 27.7543 15.527C27.5883 15.693 27.5883 16.0251 27.7543 16.3571L28.4184 17.1872H27.4223C27.0902 17.1872 26.9242 17.3532 26.7582 17.6853C26.7582 17.8513 26.5922 18.3493 26.5922 19.1794C26.5922 20.0095 26.7582 20.5076 26.7582 20.6736C26.7582 21.0056 27.0902 21.1716 27.4223 21.1716L28.4184 21.3377L27.7543 22.1678C27.5883 22.3338 27.5883 22.6658 27.7543 22.9978C27.7543 22.9978 28.0864 23.4959 28.7504 24.16C29.4145 24.824 29.9126 25.1561 29.9126 25.1561C30.0786 25.3221 30.4106 25.3221 30.7426 25.1561L31.5727 24.492L31.7388 25.4881C31.7388 25.8202 31.9048 25.9862 32.2368 26.1522C32.2368 26.1522 32.9009 26.3182 33.731 26.3182C34.7271 26.3182 35.2251 26.1522 35.2251 26.1522C35.5572 26.1522 35.7232 25.8202 35.7232 25.4881L35.8892 24.492L36.7193 25.1561C36.8853 25.3221 37.2174 25.3221 37.5494 25.1561C37.5494 25.1561 38.0474 24.824 38.7115 24.16C39.3756 23.4959 39.5416 23.1639 39.7076 22.9978C39.8736 22.6658 39.8736 22.4998 39.7076 22.1678L39.0436 21.3377L40.0397 21.1716C40.3717 21.1716 40.5377 21.0056 40.7037 20.6736C40.7037 20.5076 40.8698 20.0095 40.8698 19.1794C40.7037 18.6814 40.7037 18.1833 40.5377 17.6853ZM29.9126 22.0017C30.0786 21.8357 30.0786 21.5037 29.9126 21.1716C29.9126 21.0056 29.7465 20.8396 29.7465 20.8396C29.7465 20.8396 29.7465 20.6736 29.5805 20.5076C29.4145 20.1755 29.2485 20.0095 29.0825 20.0095L28.2524 19.8435V19.1794V18.5154L29.0825 18.3493C29.4145 18.3493 29.5805 18.1833 29.7465 17.8513C29.7465 17.6853 29.9126 17.5192 29.9126 17.5192C29.9126 17.5192 29.9126 17.3532 30.0786 17.1872C30.2446 17.0212 30.2446 16.6892 30.0786 16.3571L29.5805 15.693L30.0786 15.195L30.5766 14.6969L31.2407 15.195C31.4067 15.361 31.7388 15.361 32.0708 15.195C32.2368 15.195 32.4028 15.029 32.4028 15.029C32.4028 15.029 32.5688 15.029 32.7349 14.863C33.0669 14.6969 33.2329 14.5309 33.2329 14.1989L33.3989 13.3688H34.7271L34.8931 14.1989C34.8931 14.5309 35.0591 14.6969 35.3912 14.863C35.5572 14.863 35.7232 15.029 35.7232 15.029C35.7232 15.029 35.8892 15.195 36.0552 15.195C36.2212 15.361 36.5533 15.361 36.8853 15.195L37.5494 14.6969L38.0474 15.195L38.5455 15.693L38.0474 16.3571C37.8814 16.5231 37.8814 16.8552 38.0474 17.1872C38.0474 17.3532 38.2135 17.5192 38.2135 17.5192C38.2135 17.5192 38.2135 17.6853 38.3795 17.8513C38.5455 18.1833 38.7115 18.3493 38.8775 18.3493L39.7076 18.5154V19.8435L38.8775 20.0095C38.5455 20.0095 38.3795 20.1755 38.3795 20.5076C38.3795 20.6736 38.2135 20.8396 38.2135 20.8396C38.2135 20.8396 38.0474 21.0056 38.0474 21.1716C37.8814 21.3377 37.8814 21.6697 38.0474 22.0017L38.5455 22.6658L38.0474 23.1639L37.5494 23.6619L36.8853 23.1639C36.7193 22.9978 36.3873 22.9978 36.0552 23.1639C35.8892 23.1639 35.7232 23.3299 35.7232 23.3299C35.7232 23.3299 35.5572 23.3299 35.3912 23.4959C35.0591 23.6619 34.8931 23.8279 34.8931 24.16L34.7271 24.9901H33.3989L33.2329 24.16C33.2329 23.8279 33.0669 23.6619 32.7349 23.4959C32.5688 23.4959 32.4028 23.3299 32.4028 23.3299C32.4028 23.3299 32.2368 23.1639 32.0708 23.1639C31.9048 22.9978 31.5727 22.9978 31.2407 23.1639L30.5766 23.6619L30.0786 23.1639L29.5805 22.6658L29.9126 22.0017Z" fill="white"/>
<path id="Vector_2" d="M33.731 22.8321C35.7232 22.8321 37.3834 21.172 37.3834 19.1797C37.3834 17.1875 35.7232 15.5273 33.731 15.5273C31.7388 15.5273 30.0786 17.1875 30.0786 19.1797C30.0786 21.172 31.7388 22.8321 33.731 22.8321ZM31.5728 19.1797C31.5728 18.0176 32.5689 17.1875 33.565 17.1875C34.5611 17.1875 35.7232 18.0176 35.7232 19.1797C35.7232 20.3419 34.7271 21.172 33.731 21.172C32.7349 21.172 31.5728 20.3419 31.5728 19.1797Z" fill="white"/>
</g>
<defs>
<clipPath id="clip0_944_1204">
<rect width="40" height="40" fill="white" transform="translate(0.859375 0.839844)"/>
</clipPath>
</defs>
</svg>
