<svg width="31" height="31" viewBox="0 0 31 31" fill="none" xmlns="http://www.w3.org/2000/svg">
<g id="Frame" clip-path="url(#clip0_944_1282)">
<path id="Vector" d="M18.915 6.08203C19.29 6.45703 19.1025 7.01953 18.7275 7.39453C18.165 7.58203 17.6025 7.58203 17.415 7.01953C16.1025 4.95703 13.665 3.64453 11.04 3.64453C6.91504 3.64453 3.54004 7.01953 3.54004 11.1445C3.54004 13.7695 4.85254 16.0195 6.91504 17.5195C7.47754 17.707 7.47754 18.2695 7.29004 18.6445C6.91504 19.207 6.35254 19.207 5.97754 19.0195C3.35254 17.332 1.66504 14.332 1.66504 11.1445C1.66504 5.89453 5.79004 1.76953 11.04 1.76953C14.2275 1.76953 17.2275 3.45703 18.915 6.08203ZM10.29 10.582L17.415 28.207L19.8525 21.082C20.04 20.5195 20.415 20.1445 20.9775 19.957L28.1025 17.707L10.29 10.582ZM11.04 8.89453L28.8525 16.0195C29.79 16.3945 30.3525 17.5195 29.9775 18.457C29.79 19.0195 29.415 19.3945 28.8525 19.582L21.7275 22.0195L19.29 28.957C18.915 29.8945 17.9775 30.457 16.8525 30.082C16.29 29.8945 15.915 29.5195 15.7275 28.957L8.60254 11.332C8.22754 10.3945 8.79004 9.26953 9.72754 8.89453C10.1025 8.70703 10.665 8.70703 11.04 8.89453Z" fill="white"/>
</g>
<defs>
<clipPath id="clip0_944_1282">
<rect width="30" height="30" fill="white" transform="translate(0.727539 0.832031)"/>
</clipPath>
</defs>
</svg>
