<svg width="41" height="41" viewBox="0 0 41 41" fill="none" xmlns="http://www.w3.org/2000/svg">
<g id="Frame">
<g id="Group 5">
<path id="Vector" d="M34.9289 6.9915H30.916V6.16123C30.916 5.34924 30.5934 4.5705 30.0192 3.99634C29.4451 3.42217 28.6663 3.09961 27.8543 3.09961C27.0423 3.09961 26.2636 3.42217 25.6894 3.99634C25.1153 4.5705 24.7927 5.34924 24.7927 6.16123V6.9915H15.7289V6.16123C15.7289 5.34924 15.4064 4.5705 14.8322 3.99634C14.258 3.42217 13.4793 3.09961 12.6673 3.09961C11.8553 3.09961 11.0766 3.42217 10.5024 3.99634C9.92824 4.5705 9.60568 5.34924 9.60568 6.16123V6.9915H5.59271C5.24864 6.9915 4.91867 7.12818 4.67538 7.37147C4.43209 7.61476 4.29541 7.94473 4.29541 8.2888V32.9374C4.29541 33.2815 4.43209 33.6115 4.67538 33.8548C4.91867 34.0981 5.24864 34.2347 5.59271 34.2347H34.9981C35.3422 34.2347 35.6721 34.0981 35.9154 33.8548C36.1587 33.6115 36.2954 33.2815 36.2954 32.9374V8.2888C36.2957 8.11245 36.26 7.93791 36.1905 7.77583C36.121 7.61374 36.0192 7.46753 35.8913 7.34611C35.7634 7.2247 35.6121 7.13063 35.4466 7.06966C35.2812 7.00869 35.105 6.9821 34.9289 6.9915ZM26.5224 6.16123C26.5224 5.80799 26.6628 5.46922 26.9125 5.21944C27.1623 4.96966 27.5011 4.82934 27.8543 4.82934C28.2076 4.82934 28.5463 4.96966 28.7961 5.21944C29.0459 5.46922 29.1862 5.80799 29.1862 6.16123V10.2607C29.1862 10.6139 29.0459 10.9527 28.7961 11.2025C28.5463 11.4523 28.2076 11.5926 27.8543 11.5926C27.5011 11.5926 27.1623 11.4523 26.9125 11.2025C26.6628 10.9527 26.5224 10.6139 26.5224 10.2607V6.16123ZM11.3354 6.16123C11.3354 5.80799 11.4757 5.46922 11.7255 5.21944C11.9753 4.96966 12.3141 4.82934 12.6673 4.82934C13.0205 4.82934 13.3593 4.96966 13.6091 5.21944C13.8589 5.46922 13.9992 5.80799 13.9992 6.16123V10.2607C13.9992 10.6139 13.8589 10.9527 13.6091 11.2025C13.3593 11.4523 13.0205 11.5926 12.6673 11.5926C12.3141 11.5926 11.9753 11.4523 11.7255 11.2025C11.4757 10.9527 11.3354 10.6139 11.3354 10.2607V6.16123ZM33.6316 31.6401H6.89V9.5861H9.60568V10.278C9.60568 11.09 9.92824 11.8687 10.5024 12.4429C11.0766 13.017 11.8553 13.3396 12.6673 13.3396C13.4793 13.3396 14.258 13.017 14.8322 12.4429C15.4064 11.8687 15.7289 11.09 15.7289 10.278V9.5861H24.7927V10.278C24.7927 11.09 25.1153 11.8687 25.6894 12.4429C26.2636 13.017 27.0423 13.3396 27.8543 13.3396C28.6663 13.3396 29.4451 13.017 30.0192 12.4429C30.5934 11.8687 30.916 11.09 30.916 10.278V9.5861H33.6316V31.6401Z" fill="white"/>
<path id="Vector_2" d="M25.3465 16.2281L18.7043 23.147L15.2449 19.5492C15.1398 19.397 15.0034 19.2689 14.8448 19.1737C14.6862 19.0786 14.5091 19.0184 14.3253 18.9973C14.1416 18.9761 13.9554 18.9945 13.7794 19.0513C13.6033 19.108 13.4414 19.2017 13.3045 19.3261C13.1677 19.4506 13.059 19.6028 12.9858 19.7727C12.9126 19.9426 12.8766 20.1261 12.8801 20.3111C12.8837 20.496 12.9268 20.6781 13.0065 20.845C13.0862 21.0119 13.2006 21.1599 13.3422 21.2789L17.8049 25.8281C18.0479 26.0715 18.3777 26.2083 18.7216 26.2086C18.8961 26.2085 19.0687 26.1733 19.2292 26.1049C19.3897 26.0365 19.5347 25.9365 19.6557 25.8108L27.18 18.027C27.3651 17.7754 27.4532 17.4655 27.4282 17.1542C27.4031 16.8428 27.2666 16.551 27.0436 16.3322C26.8207 16.1135 26.5263 15.9825 26.2145 15.9634C25.9027 15.9442 25.5945 16.0382 25.3465 16.2281Z" fill="white"/>
</g>
</g>
</svg>
