<svg width="34" height="35" viewBox="0 0 34 35" fill="none" xmlns="http://www.w3.org/2000/svg">
<g id="Frame">
<path id="Vector" d="M33.6283 14.2849C33.4297 13.2355 32.7889 12.5575 31.9958 12.5575C31.9856 12.5575 31.9753 12.5576 31.9697 12.5578H31.8237C29.5301 12.5578 27.6641 10.6918 27.6641 8.39816C27.6641 7.65382 28.0232 6.81935 28.0262 6.81215C28.4373 5.88692 28.1211 4.75232 27.2914 4.17348L27.2412 4.13812L23.0257 1.79633L22.9724 1.77296C22.6978 1.65359 22.3973 1.59307 22.0791 1.59307C21.427 1.59307 20.7857 1.85478 20.3639 2.29272C19.9016 2.76997 18.3056 4.13228 17.0793 4.13228C15.8419 4.13228 14.2366 2.74321 13.7722 2.25712C13.3482 1.81025 12.7018 1.54346 12.0431 1.54346C11.7312 1.54346 11.4361 1.60186 11.1662 1.71697L11.1114 1.7402L6.74718 4.1375L6.69563 4.17324C5.86329 4.75155 5.54529 5.88513 5.95589 6.80988C5.95951 6.81819 6.3191 7.64813 6.3191 8.39806C6.3191 10.6917 4.45311 12.5577 2.15948 12.5577H2.01578C2.00578 12.5575 1.99583 12.5573 1.98592 12.5573C1.19362 12.5573 0.553384 13.2354 0.35485 14.285C0.340359 14.3619 0 16.1864 0 17.6134C0 19.0403 0.340359 20.8647 0.354898 20.9419C0.553578 21.9913 1.1942 22.6694 1.98703 22.6694C1.99708 22.6694 2.00747 22.6692 2.01346 22.669H2.15948C4.45311 22.669 6.3191 24.535 6.3191 26.8285C6.3191 27.5738 5.96014 28.4072 5.95695 28.4145C5.54626 29.339 5.86155 30.4735 6.69075 31.054L6.73998 31.0883L10.8751 33.4007L10.9277 33.4239C11.2022 33.5444 11.5019 33.6055 11.8184 33.6055C12.4797 33.6055 13.1256 33.3324 13.5463 32.875C14.1336 32.2368 15.727 30.919 16.9039 30.919C18.1781 30.919 19.8122 32.3963 20.2838 32.9133C20.7054 33.3785 21.3557 33.6563 22.0237 33.6565H22.0238C22.3342 33.6565 22.6285 33.5974 22.8987 33.4809L22.9524 33.4577L27.2388 31.0887L27.2895 31.0533C28.1204 30.4744 28.4375 29.3407 28.0278 28.4181C28.0242 28.4097 27.6641 27.5686 27.6641 26.8286C27.6641 24.535 29.5301 22.669 31.8237 22.669L31.9654 22.669C31.9748 22.6692 31.9842 22.6693 31.9936 22.6693C32.7881 22.6692 33.4297 21.9911 33.628 20.9424C33.6315 20.9239 33.9832 19.076 33.9832 17.6133C33.9832 16.1798 33.6427 14.3616 33.6283 14.2849ZM11.84 31.2043L8.22271 29.1816C8.38211 28.7722 8.70692 27.8166 8.70692 26.8286C8.70692 23.3978 6.0667 20.5613 2.66635 20.3004C2.58331 19.8165 2.38802 18.5764 2.38802 17.6134C2.38802 16.6519 2.58322 15.4106 2.66621 14.9263C6.0667 14.6656 8.70692 11.8291 8.70692 8.39811C8.70692 7.41273 8.38385 6.45982 8.22478 6.05028L12.074 3.93616C12.0741 3.93616 12.0741 3.93621 12.0742 3.93621C12.213 4.07793 12.7681 4.62876 13.5345 5.17495C14.7869 6.06768 15.9796 6.52034 17.0793 6.52034C18.1682 6.52034 19.3513 6.07647 20.5958 5.20098C21.3574 4.66528 21.9099 4.12508 22.0483 3.98572C22.0486 3.98567 22.0489 3.98558 22.0491 3.98553L25.7597 6.04705C25.6004 6.45653 25.2761 7.41143 25.2761 8.39816C25.2761 11.8292 27.9163 14.6657 31.3168 14.9264C31.3998 15.4114 31.5951 16.6548 31.5951 17.6135C31.5951 18.576 31.3999 19.8166 31.3169 20.3007C27.9165 20.5613 25.2762 23.3978 25.2762 26.8289C25.2762 27.8153 25.5998 28.7689 25.759 29.1782L22.002 31.2546C21.8398 31.0824 21.293 30.5218 20.5359 29.9596C19.2593 29.0116 18.0373 28.5309 16.9038 28.5309C15.7812 28.5309 14.5684 29.0026 13.2991 29.9328C12.553 30.4797 12.0024 31.0349 11.84 31.2043ZM22.9366 17.5914C22.9366 14.2728 20.2366 11.573 16.9179 11.573C13.5994 11.573 10.8995 14.2728 10.8995 17.5914C10.8995 20.91 13.5994 23.6099 16.9179 23.6099C20.2366 23.6099 22.9366 20.91 22.9366 17.5914ZM16.9179 13.9611C18.9198 13.9611 20.5485 15.5896 20.5485 17.5914C20.5485 19.5933 18.9198 21.222 16.9179 21.222C14.9162 21.222 13.2876 19.5933 13.2876 17.5914C13.2876 15.5896 14.9162 13.9611 16.9179 13.9611Z" fill="white"/>
</g>
</svg>
